{
  "accessors": [
    {
      "bufferView": 1,
      "componentType": 5126,
      "count": 5442,
      "max": [
        1.0028699636459351,
        1.0027600526809692,
        1.0028699636459351
      ],
      "min": [
        -1.0028699636459351,
        -1.0027600526809692,
        -1.0028699636459351
      ],
      "type": "VEC3"
    },
    {
      "bufferView": 1,
      "byteOffset": 65304,
      "componentType": 5126,
      "count": 5442,
      "max": [
        0.99999982118606567,
        1,
        1
      ],
      "min": [
        -0.99999982118606567,
        -1,
        -1
      ],
      "type": "VEC3"
    },
    {
      "bufferView": 0,
      "componentType": 5125,
      "count": 32640,
      "max": [
        5441
      ],
      "min": [
        0
      ],
      "type": "SCALAR"
    }
  ],
  "asset": {
    "extras": {
      "author": "Xan San (https://sketchfab.com/xansan3dartist)",
      "license": "CC-BY-4.0 (http://creativecommons.org/licenses/by/4.0/)",
      "source": "https://sketchfab.com/models/fd5bb0d5f7c843fe8b9d2a44d9a8d755",
      "title": "Football"
    },
    "generator": "Sketchfab-3.29.3",
    "version": "2.0"
  },
  "bufferViews": [
    {
      "buffer": 0,
      "byteLength": 130560,
      "byteOffset": 0,
      "name": "floatBufferViews",
      "target": 34963
    },
    {
      "buffer": 0,
      "byteLength": 130608,
      "byteOffset": 130560,
      "byteStride": 12,
      "name": "floatBufferViews",
      "target": 34962
    }
  ],
  "buffers": [
    {
      "byteLength": 261168,
      "uri": "scene.bin"
    }
  ],
  "materials": [
    {
      "doubleSided": true,
      "emissiveFactor": [
        0,
        0,
        0
      ],
      "name": "Scene_-_Root",
      "pbrMetallicRoughness": {
        "baseColorFactor": [
          0.5,
          0.5,
          0.5,
          1
        ],
        "metallicFactor": 0,
        "roughnessFactor": 0.59999999999999998
      }
    }
  ],
  "meshes": [
    {
      "name": "Icosphere",
      "primitives": [
        {
          "attributes": {
            "NORMAL": 1,
            "POSITION": 0
          },
          "indices": 2,
          "material": 0,
          "mode": 4
        }
      ]
    }
  ],
  "nodes": [
    {
      "children": [
        1
      ],
      "name": "RootNode (gltf orientation matrix)",
      "rotation": [
        -0.70710678118654746,
        -0,
        -0,
        0.70710678118654757
      ]
    },
    {
      "children": [
        2
      ],
      "name": "RootNode (model correction matrix)"
    },
    {
      "children": [
        3
      ],
      "name": "Root"
    },
    {
      "children": [
        4
      ],
      "matrix": [
        1.3808400000000001,
        0,
        0,
        0,
        0,
        1.3808400000000001,
        0,
        0,
        0,
        0,
        1.3808400000000001,
        0,
        0,
        0,
        1.24478,
        1
      ],
      "name": "Empty"
    },
    {
      "children": [
        5
      ],
      "matrix": [
        1.6884700000000001,
        0,
        0,
        0,
        0,
        1.6884700000000001,
        0,
        0,
        0,
        0,
        1.6884700000000001,
        0,
        0,
        0,
        0.66620000000000013,
        1
      ],
      "name": "Icosphere"
    },
    {
      "mesh": 0,
      "name": "Icosphere"
    }
  ],
  "scene": 0,
  "scenes": [
    {
      "name": "OSG_Scene",
      "nodes": [
        0
      ]
    }
  ]
}

